<svg width="30" height="23" viewBox="0 0 30 23" fill="none" xmlns="http://www.w3.org/2000/svg">
<g clip-path="url(#clip0_692_184639)">
<path d="M5.37812 22.8841V21.3618C5.37812 20.7782 5.02284 20.3977 4.41386 20.3977C4.10943 20.3977 3.77957 20.4991 3.55118 20.829C3.37366 20.5499 3.11996 20.3977 2.73937 20.3977C2.48556 20.3977 2.23198 20.4737 2.02891 20.7528V20.4484H1.49609V22.8841H2.02891V21.5394C2.02891 21.1081 2.25729 20.9051 2.61258 20.9051C2.96763 20.9051 3.14539 21.1334 3.14539 21.5394V22.8841H3.6782V21.5394C3.6782 21.1081 3.93178 20.9051 4.26164 20.9051C4.61693 20.9051 4.79446 21.1334 4.79446 21.5394V22.8841H5.37812ZM13.2687 20.4484H12.4062V19.7126H11.8734V20.4484H11.3913V20.9304H11.8733V22.0469C11.8733 22.6051 12.1016 22.9348 12.7106 22.9348C12.939 22.9348 13.1926 22.8588 13.3703 22.7573L13.218 22.3005C13.0658 22.402 12.8883 22.4275 12.7614 22.4275C12.5077 22.4275 12.4062 22.2752 12.4062 22.0214V20.9304H13.2687V20.4484ZM17.7851 20.3976C17.4806 20.3976 17.2777 20.5499 17.1508 20.7528V20.4484H16.618V22.8841H17.1508V21.514C17.1508 21.1081 17.3283 20.8797 17.6582 20.8797C17.7596 20.8797 17.8865 20.9052 17.988 20.9305L18.1402 20.4231C18.0388 20.3977 17.8865 20.3976 17.7851 20.3976ZM10.96 20.6515C10.7061 20.4738 10.351 20.3978 9.97038 20.3978C9.36152 20.3978 8.95561 20.7022 8.95561 21.1843C8.95561 21.5903 9.26004 21.8186 9.79285 21.8948L10.0465 21.9202C10.3257 21.9708 10.4779 22.047 10.4779 22.1739C10.4779 22.3514 10.2749 22.4783 9.91964 22.4783C9.56436 22.4783 9.28535 22.3514 9.10771 22.2246L8.85401 22.6305C9.13313 22.8335 9.51373 22.935 9.89421 22.935C10.6047 22.935 11.0107 22.6052 11.0107 22.1484C11.0107 21.7171 10.6808 21.4887 10.1733 21.4127L9.91964 21.3872C9.69126 21.3618 9.51373 21.3112 9.51373 21.159C9.51373 20.9813 9.69126 20.8799 9.97038 20.8799C10.2749 20.8799 10.5794 21.0067 10.7316 21.0828L10.96 20.6515ZM25.1177 20.3978C24.8131 20.3978 24.6102 20.55 24.4833 20.753V20.4485H23.9505V22.8842H24.4833V21.5142C24.4833 21.1082 24.6609 20.8799 24.9907 20.8799C25.0922 20.8799 25.2191 20.9053 25.3206 20.9306L25.4728 20.4232C25.3714 20.3978 25.2192 20.3978 25.1177 20.3978ZM18.3179 21.6664C18.3179 22.4021 18.8253 22.935 19.6119 22.935C19.9671 22.935 20.2208 22.8589 20.4744 22.6559L20.2208 22.2246C20.0178 22.3768 19.8148 22.4529 19.5865 22.4529C19.1551 22.4529 18.8507 22.1484 18.8507 21.6664C18.8507 21.2097 19.1551 20.9052 19.5865 20.8799C19.8148 20.8799 20.0178 20.9559 20.2208 21.1082L20.4744 20.6769C20.2208 20.4738 19.9671 20.3978 19.6119 20.3978C18.8253 20.3978 18.3179 20.9306 18.3179 21.6664ZM23.2401 21.6664V20.4485H22.7073V20.753C22.5297 20.5247 22.276 20.3978 21.9461 20.3978C21.2611 20.3978 20.7283 20.9306 20.7283 21.6664C20.7283 22.4021 21.2611 22.935 21.9461 22.935C22.3013 22.935 22.5551 22.8082 22.7073 22.5798V22.8842H23.2401V21.6664ZM21.2864 21.6664C21.2864 21.235 21.5655 20.8799 22.0222 20.8799C22.4535 20.8799 22.758 21.2097 22.758 21.6664C22.758 22.0977 22.4535 22.4529 22.0222 22.4529C21.5655 22.4275 21.2864 22.0977 21.2864 21.6664ZM14.918 20.3978C14.2076 20.3978 13.7001 20.9052 13.7001 21.6664C13.7001 22.4276 14.2075 22.935 14.9434 22.935C15.2985 22.935 15.6538 22.8335 15.9329 22.6052L15.6791 22.2246C15.4762 22.3768 15.2225 22.4783 14.9688 22.4783C14.6389 22.4783 14.3091 22.3261 14.2329 21.8946H16.0344V21.6918C16.0598 20.9052 15.6032 20.3978 14.918 20.3978ZM14.9179 20.8544C15.2477 20.8544 15.4762 21.0575 15.5268 21.4381H14.2582C14.3089 21.1082 14.5373 20.8544 14.9179 20.8544ZM28.1368 21.6664V19.4844H27.604V20.753C27.4263 20.5247 27.1726 20.3978 26.8428 20.3978C26.1578 20.3978 25.6249 20.9306 25.6249 21.6664C25.6249 22.4021 26.1578 22.935 26.8428 22.935C27.1981 22.935 27.4518 22.8082 27.604 22.5798V22.8842H28.1368V21.6664ZM26.1832 21.6664C26.1832 21.235 26.4622 20.8799 26.919 20.8799C27.3503 20.8799 27.6547 21.2097 27.6547 21.6664C27.6547 22.0977 27.3503 22.4529 26.919 22.4529C26.4622 22.4275 26.1832 22.0977 26.1832 21.6664ZM8.37182 21.6664V20.4485H7.83901V20.753C7.66137 20.5247 7.40767 20.3978 7.07781 20.3978C6.39278 20.3978 5.85997 20.9306 5.85997 21.6664C5.85997 22.4021 6.39278 22.935 7.07781 22.935C7.4331 22.935 7.68679 22.8082 7.83901 22.5798V22.8842H8.37182V21.6664ZM6.39278 21.6664C6.39278 21.235 6.6719 20.8799 7.12855 20.8799C7.55989 20.8799 7.86444 21.2097 7.86444 21.6664C7.86444 22.0977 7.55989 22.4529 7.12855 22.4529C6.6719 22.4275 6.39278 22.0977 6.39278 21.6664Z" fill="white"/>
<path d="M10.7832 1.95312H18.7754V16.3138H10.7832V1.95312Z" fill="#FF5F00"/>
<path d="M11.2907 9.13401C11.2907 6.21624 12.6607 3.62822 14.7666 1.95361C13.219 0.735769 11.2654 0 9.13412 0C4.08487 0 0 4.08487 0 9.13401C0 14.1831 4.08487 18.268 9.13401 18.268C11.2653 18.268 13.2189 17.5322 14.7666 16.3143C12.6607 14.6651 11.2907 12.0518 11.2907 9.13401Z" fill="#EB001B"/>
<path d="M29.5595 9.13401C29.5595 14.183 25.4747 18.268 20.4255 18.268C18.2943 18.268 16.3407 17.5322 14.793 16.3143C16.9242 14.6398 18.269 12.0518 18.269 9.13401C18.269 6.21624 16.8988 3.62822 14.793 1.95361C16.3406 0.735769 18.2943 0 20.4255 0C25.4747 0 29.5595 4.1103 29.5595 9.13401Z" fill="#F79E1B"/>
</g>
<defs>
<clipPath id="clip0_692_184639">
<rect width="29.5879" height="23" fill="white"/>
</clipPath>
</defs>
</svg>
